<?xml version="1.0" encoding="UTF-8"?>
<svg width="225.78mm" height="215.67mm" version="1.1" viewBox="0 0 800.00003 764.19217" xmlns="http://www.w3.org/2000/svg">
 <g transform="translate(1155.2 980.14)">
  <path d="m-573.17-225.63-20.57-235.15 227.36-26.128-200.68-131.19 128.97-200.13-230.15 71.713-87.833-222.92-86.166 222.92-230.15-71.713 128.97 200.13-200.68 131.19 227.37 26.128-20.57 235.15 181.23-167.33z" fill="#c88e00"/>
  <path d="m-366.37-486.91-390.8-91.169 190.12-40.026 128.97-200.13-319.09 240.15 88.947-168.44-89.501-222.92 0.55154 391.36-315.2-240.15 128.97 200.13 186.23 40.026-386.91 91.169 227.37 26.128 159.54-117.3-180.11 352.44 179.56-167.33 0.55153-185.12 181.78 351.33-18.345-234.04z" fill="#ffcd03"/>
  <path d="m-756.06-392.96v-576.48m-187.34 351.33 186.78 40.026-387.47 91.169m227.37 26.128 160.1-117.3-180.67 352.44m364.12 0-183.45-352.44 162.88 117.3m227.36-26.128-390.25-91.169 189.57-40.026m128.97-200.13-318.54 240.15 88.39-168.44m-174 0 85.609 168.44-315.76-240.15" fill="none" stroke="#bb7300" stroke-linecap="round" stroke-width="5.5591px"/>
  <path d="m-573.17-225.63-20.57-235.15 227.36-26.128-200.68-131.19 128.97-200.13-230.15 71.713-87.833-222.92-86.166 222.92-230.15-71.713 128.97 200.13-200.68 131.19 227.37 26.128-20.57 235.15 181.23-167.33z" fill="none" stroke="#945600" stroke-linecap="round" stroke-width="7.7827px"/>
 </g>
</svg>
