<?xml version="1.0" encoding="UTF-8"?>
<svg viewBox="0 0 40.002075 50.42902" xmlns="http://www.w3.org/2000/svg" xmlns:xlink="http://www.w3.org/1999/xlink">
 <defs>
  <linearGradient id="b">
   <stop stop-color="#eff3f4" offset="0"/>
   <stop stop-color="#939596" offset="1"/>
  </linearGradient>
  <linearGradient id="a">
   <stop offset="0"/>
   <stop stop-opacity="0" offset="1"/>
  </linearGradient>
  <linearGradient id="c">
   <stop stop-color="#babdb6" offset="0"/>
   <stop stop-color="#f1f5ec" offset="1"/>
  </linearGradient>
  <linearGradient id="m" x2="0" y1="-150.7" y2="327.66" gradientUnits="userSpaceOnUse">
   <stop stop-opacity="0" offset="0"/>
   <stop offset=".5"/>
   <stop stop-opacity="0" offset="1"/>
  </linearGradient>
  <linearGradient id="j" x1="13.948" x2="31.284" y1="31.003" y2="57.525" gradientTransform="matrix(1.1722 0 0 .8601 89.349 -68.184)" gradientUnits="userSpaceOnUse">
   <stop stop-color="#fff" stop-opacity=".1031" offset="0"/>
   <stop stop-color="#fff" stop-opacity="0" offset="1"/>
  </linearGradient>
  <linearGradient id="i" x1="19.977" x2="19.652" y1="38.963" y2="15.936" gradientTransform="matrix(1.2121 0 0 .83177 89.315 -68.027)" gradientUnits="userSpaceOnUse">
   <stop stop-color="#fff" offset="0"/>
   <stop stop-color="#fff" stop-opacity="0" offset="1"/>
  </linearGradient>
  <linearGradient id="l" x1="8.8354" x2="38.052" y1="25.582" y2="39.901" gradientTransform="matrix(1.1722 0 0 .8601 89.271 -68.027)" gradientUnits="userSpaceOnUse" xlink:href="#b"/>
  <linearGradient id="k" x1="7.3739" x2="7.5291" y1="27.377" y2="69.46" gradientTransform="matrix(3.5204 0 0 .34802 85.85 -73.674)" gradientUnits="userSpaceOnUse" xlink:href="#a"/>
  <linearGradient id="h" x1="-4.6375" x2="-4.5239" y1="104.39" y2="110.61" gradientTransform="matrix(1.4964 0 0 .48964 119.78 -109.16)" gradientUnits="userSpaceOnUse" xlink:href="#b"/>
  <linearGradient id="g" x1="93.154" x2="133.29" gradientUnits="userSpaceOnUse" xlink:href="#c"/>
  <linearGradient id="f" x1="123.04" x2="127.29" gradientUnits="userSpaceOnUse" xlink:href="#c"/>
  <radialGradient id="e" cx="605.71" cy="486.65" r="117.14" gradientTransform="matrix(2.7744 0 0 1.9697 -1891.6 -872.89)" gradientUnits="userSpaceOnUse" xlink:href="#a"/>
  <radialGradient id="d" cx="605.71" cy="486.65" r="117.14" gradientTransform="matrix(-2.7744 0 0 1.9697 112.76 -872.89)" gradientUnits="userSpaceOnUse" xlink:href="#a"/>
 </defs>
 <g transform="translate(-23.68 298.73)">
  <g transform="translate(-66.408 -229.19)">
   <g transform="matrix(.019546 0 0 .019662 127.63 -25.547)">
    <path d="m-1559.3-150.7h1339.6v478.36h-1339.6z" fill="url(#m)" opacity=".4021"/>
    <path d="m-219.62-150.68v478.33c142.87 0.90045 345.4-107.17 345.4-239.2s-159.44-239.13-345.4-239.13z" fill="url(#e)" opacity=".4021"/>
    <path d="m-1559.3-150.68v478.33c-142.87 0.90045-345.4-107.17-345.4-239.2s159.44-239.13 345.4-239.13z" fill="url(#d)" opacity=".4021"/>
   </g>
   <path d="m93.096-57.029c-0.04396-0.03545 1.7269 31.505 1.7274 31.513 0.16613 2.5507 1.5607 3.4829 3.1217 3.4867 0.05578 1.3e-4 23.284-0.0032 23.907-6e-3 2.6287-0.01121 3.2727-1.6346 3.4456-3.4083 0.0139-0.03497 1.7838-31.551 1.7977-31.586h-33.999z" fill="url(#l)" fill-rule="evenodd" stroke="#696b67"/>
   <path d="m126.35-54.505-30.25-0.0234c27.311 0.63733 26.677 3.6482 30.006 3.4943z" display="block" fill="url(#k)"/>
   <path d="m124.85-48.268c-5.3099 2.3605-6.5838 4.7213-12.514 4.7714-6.521 0.05511-11.326 3.1957-16.193 5.6061 0.19411 2.9124 0.4082 8.9458 0.67259 12.207 0.13188 1.6269 0.63607 1.5883 2.9318 1.5883 9.0849 0 15.004 0.01309 22.175 0.01309 1.7554 0 1.555-1.2657 1.6499-2.4778 0.45906-5.8676 0.87171-15.819 1.2775-21.708z" fill="url(#j)" fill-rule="evenodd"/>
   <path d="m94.51-54.407c-0.05126-1.3e-4 0.83675 18.817 1.5423 27.806 0.18201 2.3075 0.55192 3.2466 1.9854 3.2466 11.817 0 22.611 0.0861 23.182 0.084 2.7665-0.01016 2.7147-1.0375 2.9438-3.2202 0.0834-0.79461 1.5325-27.827 1.5187-27.827-9.9011 0-18.94-0.0574-31.173-0.08938z" fill="none" stroke="url(#i)" stroke-opacity=".2857"/>
   <path d="m96.259-68.96c-1.0668 0.0024-1.9596 0.02711-2.4459 1.0428-0.08452 0.17654-2.6609 7.3416-2.7848 7.6148-1.0604 2.3392-0.08249 5.2859 1.9656 5.2662 0.38951-0.0036 34.359 0.01827 34.979 0 1.7435-0.0505 1.9666-3.4627 1.216-4.9977-0.0425-0.08696-3.526-7.9809-3.6148-8.1208-0.41091-0.62444-1.3311-0.89811-2.0147-0.87248-0.13465 0.0052-27.167 0.06681-27.3 0.06711z" fill="url(#h)" fill-rule="evenodd" stroke="#555753"/>
   <path d="m96.72495-67.237c-.99043-.01308-1.05492-.05218-1.27787.66365-.05147.16524-2.125,6.67082-2.20628,6.92327-.27641.85854.11446,1.08511 1.07371,1.06766 .33981-.0062 31.55537,0 32.09639,0 .76803,0 .99586-.2584.82237-.86823-.0705-.2478-2.95714-7.19385-3.03465-7.31755-.35853-.55245-.29636-.55085-.92259-.55863l-26.55109.08984z" display="block" fill="url(#g)" fill-rule="evenodd"/>
   <path d="m96.19298-67.25577c-.37295.02913-.55233.14219-.70843.64429-.05147.16554-2.12272,6.67323-2.204,6.92614-.27641.86008.09027,1.0913 1.04953,1.07382h2.1486l-.2857-8.64425z" display="block" fill="#9c9e99" fill-rule="evenodd"/>
   <path d="m123.32907-67.34536c.45328.004.58638-.0053.87616.5551 .0396.07664 2.89045,6.98926 2.99281,7.24216 .3481.97444-.31488.95407-1.36643.98233l-2.79526-.02287 .29272-8.75672z" display="block" fill="url(#f)" fill-rule="evenodd"/>
  </g>
 </g>
</svg>
